<svg width="433" height="593" viewBox="0 0 433 593" fill="none" xmlns="http://www.w3.org/2000/svg">
<g opacity="0.1">
<path d="M295.957 422.399C365.565 422.399 421.993 365.97 421.993 296.363C421.993 226.755 365.565 170.327 295.957 170.327C226.349 170.327 169.921 226.755 169.921 296.363C169.921 365.97 226.349 422.399 295.957 422.399Z" stroke="#9B1815" stroke-width="5" stroke-miterlimit="10" stroke-linecap="round" stroke-linejoin="round"/>
<path d="M371.687 279.774C371.687 279.774 366.819 278.151 364.475 274.726C362.131 271.3 353.836 267.513 346.624 267.513C339.412 267.513 331.117 271.3 328.773 274.726C326.429 278.151 321.561 279.774 321.561 279.774" stroke="#9B1815" stroke-width="5" stroke-miterlimit="10" stroke-linecap="round" stroke-linejoin="round"/>
<path d="M354.377 275.086C354.377 279.413 350.951 282.839 346.624 282.839C342.296 282.839 338.871 279.413 338.871 275.086C338.871 270.758 342.296 267.333 346.624 267.333C350.951 267.333 354.377 270.939 354.377 275.086Z" stroke="#9B1815" stroke-width="5" stroke-miterlimit="10" stroke-linecap="round" stroke-linejoin="round"/>
<path d="M319.397 272.201C319.397 272.201 328.774 263.726 333.101 261.202C337.428 258.678 349.509 257.416 354.377 259.76C359.246 262.104 368.441 272.201 368.441 272.201" stroke="#9B1815" stroke-width="5" stroke-miterlimit="10" stroke-linecap="round" stroke-linejoin="round"/>
<path d="M315.25 319.081C315.25 319.081 321.2 324.13 319.758 331.162C318.496 338.013 311.644 337.292 306.776 337.473C301.907 337.653 299.383 343.783 293.974 343.603C288.565 343.783 286.04 337.653 281.172 337.473C276.304 337.292 269.452 338.013 268.19 331.162C266.928 324.31 272.697 319.081 272.697 319.081" stroke="#9B1815" stroke-width="5" stroke-miterlimit="10" stroke-linecap="round" stroke-linejoin="round"/>
<path d="M288.204 332.785C288.204 332.785 283.155 330.441 285.139 321.245C287.122 312.049 290.007 314.033 290.007 299.608C290.007 285.003 290.007 267.333 290.007 267.333" stroke="#9B1815" stroke-width="5" stroke-miterlimit="10" stroke-linecap="round" stroke-linejoin="round"/>
<path d="M323.004 363.617C323.004 363.617 316.693 364.338 312.546 364.158C308.399 363.978 306.595 362.896 303.53 362.896C297.4 363.076 297.76 365.24 294.154 365.24C290.548 365.06 290.909 363.076 284.778 362.896C281.713 362.716 279.91 363.978 275.763 364.158C271.616 364.338 265.305 363.617 265.305 363.617" stroke="#9B1815" stroke-width="5" stroke-miterlimit="10" stroke-linecap="round" stroke-linejoin="round"/>
<path d="M309.661 359.11C309.661 359.11 303.35 355.864 301.547 356.225C299.744 356.766 294.154 360.732 294.154 360.732C294.154 360.732 288.565 356.585 286.761 356.225C284.958 355.864 278.648 359.11 278.648 359.11" stroke="#9B1815" stroke-width="5" stroke-miterlimit="10" stroke-linecap="round" stroke-linejoin="round"/>
<path d="M313.447 367.765C313.447 367.765 301.907 375.338 293.974 375.338C286.04 375.338 274.5 367.765 274.5 367.765" stroke="#9B1815" stroke-width="5" stroke-miterlimit="10" stroke-linecap="round" stroke-linejoin="round"/>
<path d="M313.447 245.335C313.447 245.335 335.084 223.878 373.851 245.335" stroke="#9B1815" stroke-width="5" stroke-miterlimit="10" stroke-linecap="round" stroke-linejoin="round"/>
<path d="M220.227 279.774C220.227 279.774 225.096 278.151 227.44 274.726C229.784 271.3 238.078 267.513 245.29 267.513C252.503 267.513 260.797 271.3 263.141 274.726C265.485 278.151 270.353 279.774 270.353 279.774" stroke="#9B1815" stroke-width="5" stroke-miterlimit="10" stroke-linecap="round" stroke-linejoin="round"/>
<path d="M237.537 275.086C237.537 279.413 240.963 282.839 245.29 282.839C249.618 282.839 253.044 279.413 253.044 275.086C253.044 270.758 249.618 267.333 245.29 267.333C240.963 267.513 237.537 270.939 237.537 275.086Z" stroke="#9B1815" stroke-width="5" stroke-miterlimit="10" stroke-linecap="round" stroke-linejoin="round"/>
<path d="M272.697 272.201C272.697 272.201 263.321 263.726 258.994 261.202C254.666 258.678 242.586 257.416 237.717 259.76C232.849 262.104 223.653 272.201 223.653 272.201" stroke="#9B1815" stroke-width="5" stroke-miterlimit="10" stroke-linecap="round" stroke-linejoin="round"/>
<path d="M278.467 245.335C278.467 245.335 256.83 223.878 218.064 245.335" stroke="#9B1815" stroke-width="5" stroke-miterlimit="10" stroke-linecap="round" stroke-linejoin="round"/>
<path d="M313.447 171.589C311.644 124.348 307.136 77.2873 300.284 30.7676L296.137 3L291.99 30.7676C284.958 77.2873 280.631 124.168 278.828 171.589C284.598 170.868 290.367 170.327 296.318 170.327C301.907 170.327 307.677 170.868 313.447 171.589Z" stroke="#9B1815" stroke-width="5" stroke-miterlimit="10" stroke-linecap="round" stroke-linejoin="round"/>
<path d="M278.647 421.317C280.45 468.558 284.958 515.618 291.81 562.138L295.957 589.906L300.104 562.138C307.136 515.618 311.464 468.738 313.267 421.317C307.497 422.038 301.727 422.579 295.777 422.579C290.187 422.399 284.237 422.038 278.647 421.317Z" stroke="#9B1815" stroke-width="5" stroke-miterlimit="10" stroke-linecap="round" stroke-linejoin="round"/>
<path d="M420.911 313.852C468.152 312.049 515.213 307.541 561.732 300.69L589.5 296.543L561.732 292.395C515.213 285.363 468.332 281.036 420.911 279.233C421.632 285.003 422.173 290.773 422.173 296.723C421.993 302.312 421.632 308.082 420.911 313.852Z" stroke="#9B1815" stroke-width="5" stroke-miterlimit="10" stroke-linecap="round" stroke-linejoin="round"/>
<path d="M171.183 279.053C123.942 280.856 76.8818 285.364 30.3621 292.215L2.59448 296.362L30.3621 300.509C76.8818 307.542 123.762 311.869 171.183 313.672C170.462 307.902 169.921 302.132 169.921 296.182C169.921 290.593 170.462 284.642 171.183 279.053Z" stroke="#9B1815" stroke-width="5" stroke-miterlimit="10" stroke-linecap="round" stroke-linejoin="round"/>
<path d="M245.29 133.543C227.44 124.888 210.13 105.776 206.344 87.2038C202.377 68.8123 196.787 41.5856 171.183 42.4872C171.183 42.4872 193.001 56.7316 192.099 80.7126C191.558 97.4814 184.166 118.037 197.508 132.281C210.851 146.525 223.293 159.688 223.293 175.195C223.293 188.898 217.883 197.192 217.883 197.192H218.064C235.193 183.669 255.929 174.654 278.467 171.408C278.647 171.588 268.009 144.542 245.29 133.543Z" stroke="#9B1815" stroke-width="5" stroke-miterlimit="10" stroke-linecap="round" stroke-linejoin="round"/>
<path d="M346.804 133.543C364.655 124.888 381.965 105.776 385.751 87.2039C389.538 68.6321 395.307 41.5858 420.911 42.4873C420.911 42.4873 399.094 56.7317 399.995 80.7128C400.536 97.4815 407.929 118.037 394.586 132.281C381.243 146.526 368.802 159.688 368.802 175.195C368.802 188.898 374.211 197.192 374.211 197.192H374.031C356.902 183.669 336.166 174.654 313.627 171.408C313.447 171.588 324.085 144.542 346.804 133.543Z" stroke="#9B1815" stroke-width="5" stroke-miterlimit="10" stroke-linecap="round" stroke-linejoin="round"/>
<path d="M346.804 459.001C364.655 467.656 381.965 486.769 385.751 505.34C389.538 523.912 395.307 550.959 420.911 550.057C420.911 550.057 399.094 535.813 399.995 511.832C400.536 495.063 407.929 474.508 394.586 460.263C381.243 446.019 368.802 432.856 368.802 417.35C368.802 403.646 374.211 395.352 374.211 395.352H374.031C356.902 408.875 336.166 417.891 313.627 421.136C313.447 420.956 324.085 448.183 346.804 459.001Z" stroke="#9B1815" stroke-width="5" stroke-miterlimit="10" stroke-linecap="round" stroke-linejoin="round"/>
<path d="M245.29 459.001C227.44 467.656 210.13 486.769 206.344 505.34C202.557 523.912 196.787 550.959 171.183 550.057C171.183 550.057 193.001 535.813 192.099 511.832C191.558 495.063 184.166 474.508 197.508 460.263C210.851 446.019 223.293 432.856 223.293 417.35C223.293 403.646 217.883 395.352 217.883 395.352H218.064C235.193 408.875 255.929 417.891 278.467 421.136C278.647 420.956 268.009 448.183 245.29 459.001Z" stroke="#9B1815" stroke-width="5" stroke-miterlimit="10" stroke-linecap="round" stroke-linejoin="round"/>
<path d="M220.047 195.93C185.247 163.835 148.825 133.723 111.14 105.776L88.4215 89.0068L105.19 111.726C133.138 149.41 163.25 185.833 195.345 220.632C198.771 216.125 202.557 211.617 206.704 207.47C211.032 203.142 215.539 199.356 220.047 195.93Z" stroke="#9B1815" stroke-width="5" stroke-miterlimit="10" stroke-linecap="round" stroke-linejoin="round"/>
<path d="M372.047 396.974C406.847 429.069 443.269 459.181 480.954 487.129L503.673 503.897L486.904 481.179C458.956 443.494 428.845 407.072 396.75 372.272C393.324 376.78 389.537 381.287 385.39 385.435C380.883 389.762 376.555 393.548 372.047 396.974Z" stroke="#9B1815" stroke-width="5" stroke-miterlimit="10" stroke-linecap="round" stroke-linejoin="round"/>
<path d="M396.57 220.452C428.664 185.653 458.776 149.23 486.724 111.546L503.493 88.8267L480.774 105.595C443.089 133.543 406.667 163.655 371.867 195.75C376.375 199.176 380.883 202.962 385.03 207.109C389.357 211.437 393.144 215.944 396.57 220.452Z" stroke="#9B1815" stroke-width="5" stroke-miterlimit="10" stroke-linecap="round" stroke-linejoin="round"/>
<path d="M195.525 372.453C163.43 407.252 133.318 443.675 105.371 481.359L88.6018 504.078L111.321 487.309C149.005 459.362 185.428 429.25 220.227 397.155C215.72 393.729 211.212 389.943 207.065 385.796C202.737 381.288 198.951 376.96 195.525 372.453Z" stroke="#9B1815" stroke-width="5" stroke-miterlimit="10" stroke-linecap="round" stroke-linejoin="round"/>
<path d="M458.776 245.516C467.431 227.665 486.544 210.355 505.115 206.569C523.687 202.782 550.734 197.013 549.832 171.409C549.832 171.409 535.588 193.226 511.607 192.325C494.838 191.784 474.283 184.391 460.038 197.734C445.794 211.077 432.631 223.518 417.125 223.518C403.421 223.518 395.127 218.109 395.127 218.109V218.289C408.65 235.418 417.666 256.154 420.911 278.692C420.731 278.873 447.777 268.235 458.776 245.516Z" stroke="#9B1815" stroke-width="5" stroke-miterlimit="10" stroke-linecap="round" stroke-linejoin="round"/>
<path d="M458.776 347.03C467.431 364.88 486.544 382.19 505.115 385.976C523.687 389.763 550.734 395.533 549.832 421.137C549.832 421.137 535.588 399.319 511.607 400.221C494.838 400.762 474.283 408.154 460.038 394.812C445.794 381.469 432.631 369.027 417.125 369.027C403.421 369.027 395.127 374.437 395.127 374.437V374.256C408.65 357.127 417.666 336.391 420.911 313.853C420.731 313.673 447.777 324.311 458.776 347.03Z" stroke="#9B1815" stroke-width="5" stroke-miterlimit="10" stroke-linecap="round" stroke-linejoin="round"/>
<path d="M133.318 347.029C124.664 364.88 105.551 382.189 86.9791 385.976C68.4072 389.762 41.3609 395.532 42.2624 421.136C42.2624 421.136 56.5069 399.319 80.4879 400.22C97.2567 400.761 117.812 408.154 132.056 394.811C146.301 381.468 159.463 369.027 174.97 369.027C188.673 369.027 196.968 374.436 196.968 374.436V374.256C183.444 357.126 174.429 336.391 171.183 313.852C171.364 313.672 144.137 324.31 133.318 347.029Z" stroke="#9B1815" stroke-width="5" stroke-miterlimit="10" stroke-linecap="round" stroke-linejoin="round"/>
<path d="M133.318 245.516C124.664 227.665 105.551 210.355 86.9791 206.569C68.4072 202.782 41.3609 197.012 42.2624 171.589C42.2624 171.589 56.5069 193.406 80.4879 192.505C97.2567 191.964 117.812 184.571 132.056 197.914C146.301 211.257 159.463 223.698 174.97 223.698C188.673 223.698 196.968 218.289 196.968 218.289V218.469C183.444 235.599 174.429 256.334 171.183 278.873C171.364 278.873 144.137 268.234 133.318 245.516Z" stroke="#9B1815" stroke-width="5" stroke-miterlimit="10" stroke-linecap="round" stroke-linejoin="round"/>
</g>
</svg>
