<svg width="420" height="579" viewBox="0 0 420 579" fill="none" xmlns="http://www.w3.org/2000/svg">
<g opacity="0.1">
<path d="M130.197 401.903C192.47 401.903 242.952 351.421 242.952 289.148C242.952 226.875 192.47 176.393 130.197 176.393C67.924 176.393 17.442 226.875 17.442 289.148C17.442 351.421 67.924 401.903 130.197 401.903Z" stroke="#9B1815" stroke-width="5" stroke-miterlimit="10" stroke-linecap="round" stroke-linejoin="round"/>
<path d="M130.197 147.017V2.95068" stroke="#9B1815" stroke-width="5" stroke-miterlimit="10" stroke-linecap="round" stroke-linejoin="round"/>
<path d="M130.197 575.52V431.278" stroke="#9B1815" stroke-width="5" stroke-miterlimit="10" stroke-linecap="round" stroke-linejoin="round"/>
<path d="M416.57 289.147H272.328" stroke="#9B1815" stroke-width="5" stroke-miterlimit="10" stroke-linecap="round" stroke-linejoin="round"/>
<path d="M29.7553 188.706L-42.1897 116.761" stroke="#9B1815" stroke-width="5" stroke-miterlimit="10" stroke-linecap="round" stroke-linejoin="round"/>
<path d="M302.759 461.71L230.814 389.765" stroke="#9B1815" stroke-width="5" stroke-miterlimit="10" stroke-linecap="round" stroke-linejoin="round"/>
<path d="M29.7553 389.765L-42.1897 461.71" stroke="#9B1815" stroke-width="5" stroke-miterlimit="10" stroke-linecap="round" stroke-linejoin="round"/>
<path d="M302.759 116.761L230.814 188.706" stroke="#9B1815" stroke-width="5" stroke-miterlimit="10" stroke-linecap="round" stroke-linejoin="round"/>
<path d="M77.2496 157.395L39.2542 62.9341" stroke="#9B1815" stroke-width="5" stroke-miterlimit="10" stroke-linecap="round" stroke-linejoin="round"/>
<path d="M221.315 515.537L183.32 421.076" stroke="#9B1815" stroke-width="5" stroke-miterlimit="10" stroke-linecap="round" stroke-linejoin="round"/>
<path d="M-1.55571 342.271L-96.0165 380.266" stroke="#9B1815" stroke-width="5" stroke-miterlimit="10" stroke-linecap="round" stroke-linejoin="round"/>
<path d="M356.586 198.205L262.125 236.2" stroke="#9B1815" stroke-width="5" stroke-miterlimit="10" stroke-linecap="round" stroke-linejoin="round"/>
<path d="M-0.500314 233.562L-94.0816 193.631" stroke="#9B1815" stroke-width="5" stroke-miterlimit="10" stroke-linecap="round" stroke-linejoin="round"/>
<path d="M354.651 384.84L261.07 344.909" stroke="#9B1815" stroke-width="5" stroke-miterlimit="10" stroke-linecap="round" stroke-linejoin="round"/>
<path d="M74.611 420.021L34.6806 513.602" stroke="#9B1815" stroke-width="5" stroke-miterlimit="10" stroke-linecap="round" stroke-linejoin="round"/>
<path d="M225.889 64.8691L185.959 158.45" stroke="#9B1815" stroke-width="5" stroke-miterlimit="10" stroke-linecap="round" stroke-linejoin="round"/>
<path d="M14.2757 207.176L-29.3487 176.393" stroke="#9B1815" stroke-width="5" stroke-miterlimit="10" stroke-linecap="round" stroke-linejoin="round"/>
<path d="M289.742 402.079L246.294 371.295" stroke="#9B1815" stroke-width="5" stroke-miterlimit="10" stroke-linecap="round" stroke-linejoin="round"/>
<path d="M48.2253 405.245L17.442 448.694" stroke="#9B1815" stroke-width="5" stroke-miterlimit="10" stroke-linecap="round" stroke-linejoin="round"/>
<path d="M243.128 129.603L212.344 173.227" stroke="#9B1815" stroke-width="5" stroke-miterlimit="10" stroke-linecap="round" stroke-linejoin="round"/>
<path d="M321.581 328.902L269.513 317.996" stroke="#9B1815" stroke-width="5" stroke-miterlimit="10" stroke-linecap="round" stroke-linejoin="round"/>
<path d="M101.348 428.464L90.6183 480.532" stroke="#9B1815" stroke-width="5" stroke-miterlimit="10" stroke-linecap="round" stroke-linejoin="round"/>
<path d="M169.951 97.7637L159.045 150.007" stroke="#9B1815" stroke-width="5" stroke-miterlimit="10" stroke-linecap="round" stroke-linejoin="round"/>
<path d="M322.812 256.077L270.393 265.224" stroke="#9B1815" stroke-width="5" stroke-miterlimit="10" stroke-linecap="round" stroke-linejoin="round"/>
<path d="M154.296 429.343L163.267 481.763" stroke="#9B1815" stroke-width="5" stroke-miterlimit="10" stroke-linecap="round" stroke-linejoin="round"/>
<path d="M97.1268 96.5317L106.274 149.127" stroke="#9B1815" stroke-width="5" stroke-miterlimit="10" stroke-linecap="round" stroke-linejoin="round"/>
<path d="M52.447 170.236L23.4227 125.556" stroke="#9B1815" stroke-width="5" stroke-miterlimit="10" stroke-linecap="round" stroke-linejoin="round"/>
<path d="M237.147 452.915L207.947 408.235" stroke="#9B1815" stroke-width="5" stroke-miterlimit="10" stroke-linecap="round" stroke-linejoin="round"/>
<path d="M11.2853 366.897L-33.3945 396.098" stroke="#9B1815" stroke-width="5" stroke-miterlimit="10" stroke-linecap="round" stroke-linejoin="round"/>
<path d="M293.964 182.374L249.284 211.398" stroke="#9B1815" stroke-width="5" stroke-miterlimit="10" stroke-linecap="round" stroke-linejoin="round"/>
<path d="M57.7241 289.148C57.7241 235.497 101.173 192.224 154.648 192.224C175.404 192.224 194.754 198.733 210.585 209.991C190.18 189.234 161.684 176.393 130.373 176.393C68.1025 176.393 17.6179 226.878 17.6179 289.148C17.6179 351.418 68.1025 401.903 130.373 401.903C161.86 401.903 190.18 389.062 210.585 368.305C194.754 379.387 175.58 386.071 154.648 386.071C101.173 386.247 57.7241 342.799 57.7241 289.148Z" stroke="#9B1815" stroke-width="5" stroke-miterlimit="10" stroke-linecap="round" stroke-linejoin="round"/>
</g>
</svg>
