<svg width="33" height="26" viewBox="0 0 33 26" fill="none" xmlns="http://www.w3.org/2000/svg">
<path d="M28.2905 9.69456C28.1573 9.7763 28.025 9.85748 27.8918 9.93922C19.6577 14.9919 11.4226 20.0451 3.1874 25.0961C2.97264 25.2278 2.75555 25.3682 2.52252 25.4506C1.75249 25.72 0.876701 25.3571 0.560143 24.6618C0.215595 23.9028 0.461301 23.0442 1.16665 22.5603C1.30879 22.4624 1.45804 22.3743 1.60484 22.2843C9.81635 17.2455 18.0288 12.2062 26.2403 7.16738C26.3735 7.08564 26.5067 7.0039 26.7296 6.86712C26.5017 6.80862 26.3634 6.76758 26.2224 6.73652C22.4202 5.89839 18.6182 5.06255 14.8165 4.22299C13.8702 4.01383 13.3444 3.26634 13.5044 2.38427C13.6656 1.49191 14.4981 0.859954 15.3977 0.949283C15.5387 0.963715 15.6775 0.997309 15.8157 1.02774C20.9648 2.16176 26.1138 3.29579 31.2629 4.42981C32.4993 4.7021 32.9506 5.45964 32.6139 6.6972C31.2014 11.8884 29.7876 17.0793 28.3794 22.2715C28.1945 22.9539 27.8269 23.4585 27.1168 23.6686C25.9623 24.0112 24.8829 23.0844 25.0729 21.9143C25.098 21.7611 25.1438 21.6095 25.1849 21.4584C26.2093 17.6906 27.2346 13.9223 28.2642 10.155C28.3014 10.0181 28.3919 9.89369 28.4567 9.76364C28.4015 9.74167 28.3458 9.71883 28.2905 9.69456Z" fill="#1E1E24"/>
</svg>
